# xmcd CD Database Entry
#
# Track frame offsets:
# 150
# 19155
# 45510
# 65602
# 84615
# 101022
# 121695
# 138022
# 165365
#
# Disc length: 2671 seconds
#
# Revision: 1
# Processed by: cddbd v1.4PL0 Copyright (c) Steve Scherf et al.
# Submitted via: tcd 2.0b
#
DISCID=670a6d09
DTITLE=Jerry Jeff Walker - Viva Terlingua!
DYEAR=1973
DGENRE=Country
TTITLE0=Gettin' By
TTITLE1=Desperados Waiting for the Train
TTITLE2=Sangria Wine
TTITLE3=Little Bird
TTITLE4=Get It Out
TTITLE5=Up Against the Wall Red Neck
TTITLE6=Backsliders Wine
TTITLE7=Wheel
TTITLE8=London Homesick Blues
EXTD=
EXTT0=
EXTT1=
EXTT2=
EXTT3=
EXTT4=
EXTT5=
EXTT6=
EXTT7=
EXTT8=
PLAYORDER=
